<svg width="3503" height="1730" xmlns="http://www.w3.org/2000/svg" xmlns:xlink="http://www.w3.org/1999/xlink" xml:space="preserve" overflow="hidden"><defs><clipPath id="clip0"><rect x="45" y="209" width="3503" height="1730"/></clipPath><clipPath id="clip1"><rect x="1005" y="1428" width="386" height="358"/></clipPath><clipPath id="clip2"><rect x="1005" y="1428" width="386" height="358"/></clipPath><clipPath id="clip3"><rect x="1005" y="1428" width="527" height="358"/></clipPath><clipPath id="clip4"><rect x="1026" y="1442" width="352" height="323"/></clipPath><clipPath id="clip5"><rect x="1005" y="1428" width="527" height="358"/></clipPath><clipPath id="clip6"><rect x="2115" y="464" width="396" height="369"/></clipPath><clipPath id="clip7"><rect x="2115" y="464" width="396" height="369"/></clipPath><clipPath id="clip8"><rect x="2115" y="464" width="546" height="369"/></clipPath><clipPath id="clip9"><rect x="2137" y="478" width="364" height="334"/></clipPath><clipPath id="clip10"><rect x="2115" y="464" width="546" height="369"/></clipPath><clipPath id="clip11"><rect x="2966" y="948" width="461" height="325"/></clipPath><clipPath id="clip12"><rect x="2966" y="948" width="461" height="325"/></clipPath><clipPath id="clip13"><rect x="2896" y="948" width="531" height="396"/></clipPath><clipPath id="clip14"><rect x="2897" y="948" width="528" height="396"/></clipPath><clipPath id="clip15"><rect x="3012" y="975" width="386" height="254"/></clipPath><clipPath id="clip16"><rect x="2897" y="948" width="528" height="396"/></clipPath></defs><g clip-path="url(#clip0)" transform="translate(-45 -209)"><path d="M47.4999 490.822C47.4999 336.557 172.557 211.5 326.822 211.5L1444.11 211.5C1598.38 211.5 1723.43 336.557 1723.43 490.822L1723.43 1656.18C1723.43 1810.44 1598.38 1935.5 1444.11 1935.5L326.822 1935.5C172.557 1935.5 47.4999 1810.44 47.4999 1656.18Z" stroke="#7F7F7F" stroke-width="4.58333" stroke-miterlimit="8" stroke-dasharray="18.3333 13.75" fill="none" fill-rule="evenodd"/><path d="M1763.5 498.834C1763.5 340.144 1892.14 211.5 2050.83 211.5L3257.17 211.5C3415.86 211.5 3544.5 340.144 3544.5 498.834L3544.5 1648.17C3544.5 1806.86 3415.86 1935.5 3257.17 1935.5L2050.83 1935.5C1892.14 1935.5 1763.5 1806.86 1763.5 1648.17Z" stroke="#7F7F7F" stroke-width="4.58333" stroke-miterlimit="8" stroke-dasharray="18.3333 13.75" fill="none" fill-rule="evenodd"/><path d="M2839 984.335C2839 948.804 2867.8 920 2903.33 920L3432.67 920C3468.2 920 3497 948.804 3497 984.335L3497 1241.67C3497 1277.2 3468.2 1306 3432.67 1306L2903.33 1306C2867.8 1306 2839 1277.2 2839 1241.67Z" fill="#A2D3EE" fill-rule="evenodd"/><path d="M1413.35 1605.17 1428.53 1589.36 1430.04 1602.8C1627.84 1568.88 1760.95 1340.92 1732.16 1085.38 1760.95 1340.92 1627.84 1568.88 1430.04 1602.8L1431.56 1616.23Z" fill-rule="evenodd"/><path d="M1732.16 1085.38C1702.44 821.494 1511.51 626.365 1305.7 649.548L1305.7 649.548C1511.51 626.365 1702.44 821.494 1732.16 1085.38Z" fill-rule="evenodd"/><path d="M1732.16 1085.38C1702.44 821.494 1511.51 626.365 1305.7 649.548L1305.7 649.548C1511.51 626.365 1702.44 821.494 1732.16 1085.38L1732.16 1085.38C1760.95 1340.92 1627.84 1568.88 1430.04 1602.8L1431.56 1616.23 1413.35 1605.17 1428.53 1589.36 1430.04 1602.8C1627.84 1568.88 1760.95 1340.92 1732.16 1085.38" stroke="#000000" stroke-width="4.58333" stroke-miterlimit="8" fill="none" fill-rule="evenodd"/><text font-family="Cambria Math,Cambria Math_MSFontService,sans-serif" font-weight="700" font-size="55" transform="translate(768.774 1171)">①</text><text font-family="Arial,Arial_MSFontService,sans-serif" font-weight="400" font-size="55" transform="matrix(1 0 0 1 848.983 1171)">Associate</text><path d="M1099.79 1009.42 1099.79 1308.63 1095.21 1308.63 1095.21 1009.42ZM1083.75 1014 1097.5 986.5 1111.25 1014ZM1111.25 1304.05 1097.5 1331.55 1083.75 1304.05Z"/><path d="M949.5 1407.83C949.5 1365.68 983.676 1331.5 1025.84 1331.5L1331.17 1331.5C1373.32 1331.5 1407.5 1365.68 1407.5 1407.83L1407.5 1738.17C1407.5 1780.32 1373.32 1814.5 1331.17 1814.5L1025.84 1814.5C983.676 1814.5 949.5 1780.32 949.5 1738.17Z" stroke="#413D23" stroke-width="4.58333" stroke-miterlimit="8" fill="#EDECDF" fill-rule="evenodd"/><text font-family="Arial,Arial_MSFontService,sans-serif" font-weight="400" font-size="55" transform="matrix(1 0 0 1 1068.3 1408)">Individuals</text><text font-family="Arial,Arial_MSFontService,sans-serif" font-weight="400" font-size="55" transform="matrix(-1.83697e-16 -1 1 -1.83697e-16 1004.91 1677)">RFUs</text><g clip-path="url(#clip1)"><g clip-path="url(#clip2)"><g clip-path="url(#clip3)"><g clip-path="url(#clip4)"><path d="M20.3217 298.521 352.712 298.521" stroke="#EBEBEB" stroke-width="2.64528" stroke-linejoin="round" stroke-miterlimit="10" fill="none" transform="matrix(1.05561 0 0 1 1005.2 1429)"/><path d="M20.3217 236.567 352.712 236.567" stroke="#EBEBEB" stroke-width="2.64528" stroke-linejoin="round" stroke-miterlimit="10" fill="none" transform="matrix(1.05561 0 0 1 1005.2 1429)"/><path d="M20.3217 174.613 352.712 174.613" stroke="#EBEBEB" stroke-width="2.64528" stroke-linejoin="round" stroke-miterlimit="10" fill="none" transform="matrix(1.05561 0 0 1 1005.2 1429)"/><path d="M20.3217 112.659 352.712 112.659" stroke="#EBEBEB" stroke-width="2.64528" stroke-linejoin="round" stroke-miterlimit="10" fill="none" transform="matrix(1.05561 0 0 1 1005.2 1429)"/><path d="M20.3217 50.7053 352.712 50.7053" stroke="#EBEBEB" stroke-width="2.64528" stroke-linejoin="round" stroke-miterlimit="10" fill="none" transform="matrix(1.05561 0 0 1 1005.2 1429)"/><path d="M58.6659 335.678 58.6659 13.5478" stroke="#EBEBEB" stroke-width="2.64528" stroke-linejoin="round" stroke-miterlimit="10" fill="none" transform="matrix(1.05561 0 0 1 1005.2 1429)"/><path d="M122.598 335.678 122.598 13.5478" stroke="#EBEBEB" stroke-width="2.64528" stroke-linejoin="round" stroke-miterlimit="10" fill="none" transform="matrix(1.05561 0 0 1 1005.2 1429)"/><path d="M186.529 335.678 186.529 13.5478" stroke="#EBEBEB" stroke-width="2.64528" stroke-linejoin="round" stroke-miterlimit="10" fill="none" transform="matrix(1.05561 0 0 1 1005.2 1429)"/><path d="M250.436 335.678 250.436 13.5478" stroke="#EBEBEB" stroke-width="2.64528" stroke-linejoin="round" stroke-miterlimit="10" fill="none" transform="matrix(1.05561 0 0 1 1005.2 1429)"/><path d="M314.368 335.678 314.368 13.5478" stroke="#EBEBEB" stroke-width="2.64528" stroke-linejoin="round" stroke-miterlimit="10" fill="none" transform="matrix(1.05561 0 0 1 1005.2 1429)"/><path d="M90.6317 267.544 154.563 267.544 154.563 329.498 90.6317 329.498Z" fill="#AEDC30" transform="matrix(1.05561 0 0 1 1005.2 1429)"/><path d="M282.402 267.544 346.334 267.544 346.334 329.498 282.402 329.498Z" fill="#FDE725" transform="matrix(1.05561 0 0 1 1005.2 1429)"/><path d="M218.47 267.544 282.402 267.544 282.402 329.498 218.47 329.498Z" fill="#25838E" transform="matrix(1.05561 0 0 1 1005.2 1429)"/><path d="M154.563 267.544 218.495 267.544 218.495 329.498 154.563 329.498Z" fill="#31688E" transform="matrix(1.05561 0 0 1 1005.2 1429)"/><path d="M26.7 267.544 90.6317 267.544 90.6317 329.498 26.7 329.498Z" fill="#38588C" transform="matrix(1.05561 0 0 1 1005.2 1429)"/><path d="M90.6317 205.59 154.563 205.59 154.563 267.544 90.6317 267.544Z" fill="#32648E" transform="matrix(1.05561 0 0 1 1005.2 1429)"/><path d="M282.402 205.59 346.334 205.59 346.334 267.544 282.402 267.544Z" fill="#7CD250" transform="matrix(1.05561 0 0 1 1005.2 1429)"/><path d="M218.47 205.59 282.402 205.59 282.402 267.544 218.47 267.544Z" fill="#25AC82" transform="matrix(1.05561 0 0 1 1005.2 1429)"/><path d="M154.563 205.59 218.495 205.59 218.495 267.544 154.563 267.544Z" fill="#482576" transform="matrix(1.05561 0 0 1 1005.2 1429)"/><path d="M26.7 205.59 90.6317 205.59 90.6317 267.544 26.7 267.544Z" fill="#33638D" transform="matrix(1.05561 0 0 1 1005.2 1429)"/><path d="M90.6317 143.636 154.563 143.636 154.563 205.59 90.6317 205.59Z" fill="#228D8D" transform="matrix(1.05561 0 0 1 1005.2 1429)"/><path d="M282.402 143.636 346.334 143.636 346.334 205.59 282.402 205.59Z" fill="#20928C" transform="matrix(1.05561 0 0 1 1005.2 1429)"/><path d="M218.47 143.636 282.402 143.636 282.402 205.59 218.47 205.59Z" fill="#287C8E" transform="matrix(1.05561 0 0 1 1005.2 1429)"/><path d="M154.563 143.636 218.495 143.636 218.495 205.59 154.563 205.59Z" fill="#1E9B8A" transform="matrix(1.05561 0 0 1 1005.2 1429)"/><path d="M26.7 143.636 90.6317 143.636 90.6317 205.59 26.7 205.59Z" fill="#440154" transform="matrix(1.05561 0 0 1 1005.2 1429)"/><path d="M90.6317 81.6823 154.563 81.6823 154.563 143.636 90.6317 143.636Z" fill="#365D8D" transform="matrix(1.05561 0 0 1 1005.2 1429)"/><path d="M282.402 81.6823 346.334 81.6823 346.334 143.636 282.402 143.636Z" fill="#2A778E" transform="matrix(1.05561 0 0 1 1005.2 1429)"/><path d="M218.47 81.6823 282.402 81.6823 282.402 143.636 218.47 143.636Z" fill="#277F8E" transform="matrix(1.05561 0 0 1 1005.2 1429)"/><path d="M154.563 81.6823 218.495 81.6823 218.495 143.636 154.563 143.636Z" fill="#86D549" transform="matrix(1.05561 0 0 1 1005.2 1429)"/><path d="M26.7 81.6823 90.6317 81.6823 90.6317 143.636 26.7 143.636Z" fill="#20A486" transform="matrix(1.05561 0 0 1 1005.2 1429)"/><path d="M90.6317 19.7531 154.563 19.7531 154.563 81.707 90.6317 81.707Z" fill="#218F8D" transform="matrix(1.05561 0 0 1 1005.2 1429)"/><path d="M282.402 19.7531 346.334 19.7531 346.334 81.707 282.402 81.707Z" fill="#2B748E" transform="matrix(1.05561 0 0 1 1005.2 1429)"/><path d="M218.47 19.7531 282.402 19.7531 282.402 81.707 218.47 81.707Z" fill="#6BCD5A" transform="matrix(1.05561 0 0 1 1005.2 1429)"/><path d="M154.563 19.7531 218.495 19.7531 218.495 81.707 154.563 81.707Z" fill="#48C16E" transform="matrix(1.05561 0 0 1 1005.2 1429)"/><path d="M26.7 19.7531 90.6317 19.7531 90.6317 81.707 26.7 81.707Z" fill="#20928C" transform="matrix(1.05561 0 0 1 1005.2 1429)"/></g><g clip-path="url(#clip5)"><text font-family="Arial,Arial_MSFontService,sans-serif" font-weight="400" font-size="9" transform="matrix(2.60972 0 0 2.47222 1479.82 1711)">-</text><text font-family="Arial,Arial_MSFontService,sans-serif" font-weight="400" font-size="9" transform="matrix(2.60972 0 0 2.47222 1487.65 1711)">2</text><text font-family="Arial,Arial_MSFontService,sans-serif" font-weight="400" font-size="9" transform="matrix(2.60972 0 0 2.47222 1479.82 1662)">-</text><text font-family="Arial,Arial_MSFontService,sans-serif" font-weight="400" font-size="9" transform="matrix(2.60972 0 0 2.47222 1487.65 1662)">1</text><text font-family="Arial,Arial_MSFontService,sans-serif" font-weight="400" font-size="9" transform="matrix(2.60972 0 0 2.47222 1479.82 1613)">0</text><text font-family="Arial,Arial_MSFontService,sans-serif" font-weight="400" font-size="9" transform="matrix(2.60972 0 0 2.47222 1479.82 1563)">1</text><text font-family="Arial,Arial_MSFontService,sans-serif" font-weight="400" font-size="9" transform="matrix(2.60972 0 0 2.47222 1479.82 1514)">2</text><path d="M393.355 274.145 401.909 274.145" stroke="#FFFFFF" stroke-width="0.939445" stroke-linejoin="round" stroke-miterlimit="10" fill="none" transform="matrix(1.05561 0 0 1 1005.2 1429)"/><path d="M393.355 224.873 401.909 224.873" stroke="#FFFFFF" stroke-width="0.939445" stroke-linejoin="round" stroke-miterlimit="10" fill="none" transform="matrix(1.05561 0 0 1 1005.2 1429)"/><path d="M393.355 175.627 401.909 175.627" stroke="#FFFFFF" stroke-width="0.939445" stroke-linejoin="round" stroke-miterlimit="10" fill="none" transform="matrix(1.05561 0 0 1 1005.2 1429)"/><path d="M393.355 126.355 401.909 126.355" stroke="#FFFFFF" stroke-width="0.939445" stroke-linejoin="round" stroke-miterlimit="10" fill="none" transform="matrix(1.05561 0 0 1 1005.2 1429)"/><path d="M393.355 77.1086 401.909 77.1086" stroke="#FFFFFF" stroke-width="0.939445" stroke-linejoin="round" stroke-miterlimit="10" fill="none" transform="matrix(1.05561 0 0 1 1005.2 1429)"/><path d="M427.546 274.145 436.075 274.145" stroke="#FFFFFF" stroke-width="0.939445" stroke-linejoin="round" stroke-miterlimit="10" fill="none" transform="matrix(1.05561 0 0 1 1005.2 1429)"/><path d="M427.546 224.873 436.075 224.873" stroke="#FFFFFF" stroke-width="0.939445" stroke-linejoin="round" stroke-miterlimit="10" fill="none" transform="matrix(1.05561 0 0 1 1005.2 1429)"/><path d="M427.546 175.627 436.075 175.627" stroke="#FFFFFF" stroke-width="0.939445" stroke-linejoin="round" stroke-miterlimit="10" fill="none" transform="matrix(1.05561 0 0 1 1005.2 1429)"/><path d="M427.546 126.355 436.075 126.355" stroke="#FFFFFF" stroke-width="0.939445" stroke-linejoin="round" stroke-miterlimit="10" fill="none" transform="matrix(1.05561 0 0 1 1005.2 1429)"/><path d="M427.546 77.1086 436.075 77.1086" stroke="#FFFFFF" stroke-width="0.939445" stroke-linejoin="round" stroke-miterlimit="10" fill="none" transform="matrix(1.05561 0 0 1 1005.2 1429)"/></g></g></g></g><path d="M842 446.002C842 399.057 880.056 361 927.002 361L1267 361C1313.94 361 1352 399.057 1352 446.002L1352 900.998C1352 947.943 1313.94 986 1267 986L927.002 986C880.056 986 842 947.943 842 900.998Z" fill="#F4C4C5" fill-rule="evenodd"/><text font-family="Arial,Arial_MSFontService,sans-serif" font-weight="400" font-size="55" transform="matrix(1 0 0 1 989.314 436)">Individuals</text><text font-family="Arial,Arial_MSFontService,sans-serif" font-weight="400" font-size="55" transform="matrix(-1.83697e-16 -1 1 -1.83697e-16 899.677 801)">Variants</text><rect x="919" y="451" width="399" height="500" fill="#FBEFEF"/><text font-family="Arial,Arial_MSFontService,sans-serif" font-weight="400" font-size="55" transform="matrix(1 0 0 1 951.962 520)">1 0 0 … 2 0</text><text font-family="Arial,Arial_MSFontService,sans-serif" font-weight="400" font-size="55" transform="matrix(1 0 0 1 951.962 586)">0 1 1 … 1 0</text><text font-family="Arial,Arial_MSFontService,sans-serif" font-weight="400" font-size="55" transform="matrix(1 0 0 1 951.962 916)">1 0 0 … 0 2</text><rect x="917" y="614" width="403" height="234" fill="#F7DFDF"/><text font-family="Arial,Arial_MSFontService,sans-serif" font-weight="400" font-size="55" transform="matrix(1 0 0 1 950.006 684)">0 0 1 … 0 0</text><text font-family="Arial,Arial_MSFontService,sans-serif" font-weight="400" font-size="55" transform="matrix(1 0 0 1 950.006 750)">0 0 0 … 1 1</text><text font-family="Arial,Arial_MSFontService,sans-serif" font-weight="400" font-size="55" transform="matrix(1 0 0 1 1089.22 816)">…</text><text font-family="Arial,Arial_MSFontService,sans-serif" font-weight="400" font-size="55" transform="matrix(1 0 0 1 542.21 684)">RFU</text><text font-family="Arial,Arial_MSFontService,sans-serif" font-weight="400" font-size="55" transform="matrix(1 0 0 1 655.075 684)">-</text><text font-family="Arial,Arial_MSFontService,sans-serif" font-weight="400" font-size="55" transform="matrix(1 0 0 1 476.898 750)">associated </text><text font-family="Arial,Arial_MSFontService,sans-serif" font-weight="400" font-size="55" transform="matrix(1 0 0 1 533.341 816)">genes</text><path d="M818 818C801.708 818 788.5 815.799 788.5 813.084L788.5 723.917C788.5 721.201 775.292 719 759 719 775.292 719 788.5 716.799 788.5 714.084L788.5 624.917C788.5 622.201 801.708 620 818 620" stroke="#000000" stroke-width="2.29167" stroke-miterlimit="8" fill="none" fill-rule="evenodd"/><text font-family="Calibri,Calibri_MSFontService,sans-serif" font-weight="700" font-size="55" transform="translate(1423.72 876)">②</text><text font-family="Arial,Arial_MSFontService,sans-serif" font-weight="400" font-size="55" transform="matrix(1 0 0 1 1509.66 876)">Train</text><path d="M2059 667.579 2044.71 687.822 2040.7 673.044C1824.71 743.559 1707.49 994.206 1774.65 1241.93 1707.49 994.206 1824.71 743.559 2040.7 673.044L2036.69 658.266Z" fill-rule="evenodd"/><path d="M1774.65 1241.93C1844.01 1497.76 2083.78 1655.39 2310.18 1594L2310.18 1594C2083.78 1655.39 1844.01 1497.76 1774.65 1241.93Z" fill-rule="evenodd"/><path d="M1774.65 1241.93C1844.01 1497.76 2083.78 1655.39 2310.18 1594L2310.18 1594C2083.78 1655.39 1844.01 1497.76 1774.65 1241.93L1774.65 1241.93C1707.49 994.206 1824.71 743.559 2040.7 673.045L2036.69 658.266 2059 667.579 2044.71 687.822 2040.7 673.044C1824.71 743.559 1707.49 994.206 1774.65 1241.93" stroke="#000000" stroke-width="4.58333" stroke-miterlimit="8" fill="none" fill-rule="evenodd"/><path d="M2068.5 445.835C2068.5 405.333 2101.33 372.5 2141.83 372.5L2435.17 372.5C2475.67 372.5 2508.5 405.333 2508.5 445.835L2508.5 781.165C2508.5 821.667 2475.67 854.5 2435.17 854.5L2141.83 854.5C2101.33 854.5 2068.5 821.667 2068.5 781.165Z" stroke="#413D23" stroke-width="4.58333" stroke-miterlimit="8" fill="#E6E4D2" fill-rule="evenodd"/><text font-family="Arial,Arial_MSFontService,sans-serif" font-weight="400" font-size="55" transform="matrix(1 0 0 1 2183.48 449)">Individuals</text><text font-family="Arial,Arial_MSFontService,sans-serif" font-weight="400" font-size="55" transform="matrix(-1.83697e-16 -1 1 -1.83697e-16 2121.77 749)">gdRFUs</text><g clip-path="url(#clip6)"><g clip-path="url(#clip7)"><g clip-path="url(#clip8)"><g clip-path="url(#clip9)"><path d="M21.0637 309.422 365.592 309.422" stroke="#EBEBEB" stroke-width="2.74187" stroke-linejoin="round" stroke-miterlimit="10" fill="none" transform="matrix(1.05474 0 0 1 2115.2 464)"/><path d="M21.0637 245.206 365.592 245.206" stroke="#EBEBEB" stroke-width="2.74187" stroke-linejoin="round" stroke-miterlimit="10" fill="none" transform="matrix(1.05474 0 0 1 2115.2 464)"/><path d="M21.0637 180.989 365.592 180.989" stroke="#EBEBEB" stroke-width="2.74187" stroke-linejoin="round" stroke-miterlimit="10" fill="none" transform="matrix(1.05474 0 0 1 2115.2 464)"/><path d="M21.0637 116.773 365.592 116.773" stroke="#EBEBEB" stroke-width="2.74187" stroke-linejoin="round" stroke-miterlimit="10" fill="none" transform="matrix(1.05474 0 0 1 2115.2 464)"/><path d="M21.0637 52.5569 365.592 52.5569" stroke="#EBEBEB" stroke-width="2.74187" stroke-linejoin="round" stroke-miterlimit="10" fill="none" transform="matrix(1.05474 0 0 1 2115.2 464)"/><path d="M60.8081 347.936 60.8081 14.0425" stroke="#EBEBEB" stroke-width="2.74187" stroke-linejoin="round" stroke-miterlimit="10" fill="none" transform="matrix(1.05474 0 0 1 2115.2 464)"/><path d="M127.074 347.936 127.074 14.0425" stroke="#EBEBEB" stroke-width="2.74187" stroke-linejoin="round" stroke-miterlimit="10" fill="none" transform="matrix(1.05474 0 0 1 2115.2 464)"/><path d="M193.341 347.936 193.341 14.0425" stroke="#EBEBEB" stroke-width="2.74187" stroke-linejoin="round" stroke-miterlimit="10" fill="none" transform="matrix(1.05474 0 0 1 2115.2 464)"/><path d="M259.581 347.936 259.581 14.0425" stroke="#EBEBEB" stroke-width="2.74187" stroke-linejoin="round" stroke-miterlimit="10" fill="none" transform="matrix(1.05474 0 0 1 2115.2 464)"/><path d="M325.847 347.936 325.847 14.0425" stroke="#EBEBEB" stroke-width="2.74187" stroke-linejoin="round" stroke-miterlimit="10" fill="none" transform="matrix(1.05474 0 0 1 2115.2 464)"/><path d="M160.207 277.314 226.474 277.314 226.474 341.53 160.207 341.53Z" fill="#29798E" transform="matrix(1.05474 0 0 1 2115.2 464)"/><path d="M292.714 277.314 358.98 277.314 358.98 341.53 292.714 341.53Z" fill="#6FCF57" transform="matrix(1.05474 0 0 1 2115.2 464)"/><path d="M226.448 277.314 292.714 277.314 292.714 341.53 226.448 341.53Z" fill="#3ABA76" transform="matrix(1.05474 0 0 1 2115.2 464)"/><path d="M93.9412 277.314 160.207 277.314 160.207 341.53 93.9412 341.53Z" fill="#36B878" transform="matrix(1.05474 0 0 1 2115.2 464)"/><path d="M27.675 277.314 93.9412 277.314 93.9412 341.53 27.675 341.53Z" fill="#2A778E" transform="matrix(1.05474 0 0 1 2115.2 464)"/><path d="M160.207 213.097 226.474 213.097 226.474 277.314 160.207 277.314Z" fill="#375B8D" transform="matrix(1.05474 0 0 1 2115.2 464)"/><path d="M292.714 213.097 358.98 213.097 358.98 277.314 292.714 277.314Z" fill="#440154" transform="matrix(1.05474 0 0 1 2115.2 464)"/><path d="M226.448 213.097 292.714 213.097 292.714 277.314 226.448 277.314Z" fill="#2EB37C" transform="matrix(1.05474 0 0 1 2115.2 464)"/><path d="M93.9412 213.097 160.207 213.097 160.207 277.314 93.9412 277.314Z" fill="#25848E" transform="matrix(1.05474 0 0 1 2115.2 464)"/><path d="M27.675 213.097 93.9412 213.097 93.9412 277.314 27.675 277.314Z" fill="#FDE725" transform="matrix(1.05474 0 0 1 2115.2 464)"/><path d="M160.207 148.881 226.474 148.881 226.474 213.097 160.207 213.097Z" fill="#453781" transform="matrix(1.05474 0 0 1 2115.2 464)"/><path d="M292.714 148.881 358.98 148.881 358.98 213.097 292.714 213.097Z" fill="#3CBB75" transform="matrix(1.05474 0 0 1 2115.2 464)"/><path d="M226.448 148.881 292.714 148.881 292.714 213.097 226.448 213.097Z" fill="#26828E" transform="matrix(1.05474 0 0 1 2115.2 464)"/><path d="M93.9412 148.881 160.207 148.881 160.207 213.097 93.9412 213.097Z" fill="#1F998A" transform="matrix(1.05474 0 0 1 2115.2 464)"/><path d="M27.675 148.881 93.9412 148.881 93.9412 213.097 27.675 213.097Z" fill="#1F948C" transform="matrix(1.05474 0 0 1 2115.2 464)"/><path d="M160.207 84.665 226.474 84.665 226.474 148.881 160.207 148.881Z" fill="#2A768E" transform="matrix(1.05474 0 0 1 2115.2 464)"/><path d="M292.714 84.665 358.98 84.665 358.98 148.881 292.714 148.881Z" fill="#80D34E" transform="matrix(1.05474 0 0 1 2115.2 464)"/><path d="M226.448 84.665 292.714 84.665 292.714 148.881 226.448 148.881Z" fill="#3B528B" transform="matrix(1.05474 0 0 1 2115.2 464)"/><path d="M93.9412 84.665 160.207 84.665 160.207 148.881 93.9412 148.881Z" fill="#6ACD5B" transform="matrix(1.05474 0 0 1 2115.2 464)"/><path d="M27.675 84.665 93.9412 84.665 93.9412 148.881 27.675 148.881Z" fill="#2D718E" transform="matrix(1.05474 0 0 1 2115.2 464)"/><path d="M160.207 20.4744 226.474 20.4744 226.474 84.6906 160.207 84.6906Z" fill="#33B679" transform="matrix(1.05474 0 0 1 2115.2 464)"/><path d="M292.714 20.4744 358.98 20.4744 358.98 84.6906 292.714 84.6906Z" fill="#20928C" transform="matrix(1.05474 0 0 1 2115.2 464)"/><path d="M226.448 20.4744 292.714 20.4744 292.714 84.6906 226.448 84.6906Z" fill="#3E4A89" transform="matrix(1.05474 0 0 1 2115.2 464)"/><path d="M93.9412 20.4744 160.207 20.4744 160.207 84.6906 93.9412 84.6906Z" fill="#23A983" transform="matrix(1.05474 0 0 1 2115.2 464)"/><path d="M27.675 20.4744 93.9412 20.4744 93.9412 84.6906 27.675 84.6906Z" fill="#2E6D8E" transform="matrix(1.05474 0 0 1 2115.2 464)"/></g><g clip-path="url(#clip10)"><text font-family="Arial,Arial_MSFontService,sans-serif" font-weight="400" font-size="9" transform="matrix(2.70278 0 0 2.5625 2606.76 767)">-</text><text font-family="Arial,Arial_MSFontService,sans-serif" font-weight="400" font-size="9" transform="matrix(2.70278 0 0 2.5625 2614.87 767)">2</text><text font-family="Arial,Arial_MSFontService,sans-serif" font-weight="400" font-size="9" transform="matrix(2.70278 0 0 2.5625 2606.76 719)">-</text><text font-family="Arial,Arial_MSFontService,sans-serif" font-weight="400" font-size="9" transform="matrix(2.70278 0 0 2.5625 2614.87 719)">1</text><text font-family="Arial,Arial_MSFontService,sans-serif" font-weight="400" font-size="9" transform="matrix(2.70278 0 0 2.5625 2606.76 671)">0</text><text font-family="Arial,Arial_MSFontService,sans-serif" font-weight="400" font-size="9" transform="matrix(2.70278 0 0 2.5625 2606.76 623)">1</text><text font-family="Arial,Arial_MSFontService,sans-serif" font-weight="400" font-size="9" transform="matrix(2.70278 0 0 2.5625 2606.76 575)">2</text><path d="M407.719 294.559 416.585 294.559" stroke="#FFFFFF" stroke-width="0.973749" stroke-linejoin="round" stroke-miterlimit="10" fill="none" transform="matrix(1.05474 0 0 1 2115.2 464)"/><path d="M407.719 246.692 416.585 246.692" stroke="#FFFFFF" stroke-width="0.973749" stroke-linejoin="round" stroke-miterlimit="10" fill="none" transform="matrix(1.05474 0 0 1 2115.2 464)"/><path d="M407.719 198.85 416.585 198.85" stroke="#FFFFFF" stroke-width="0.973749" stroke-linejoin="round" stroke-miterlimit="10" fill="none" transform="matrix(1.05474 0 0 1 2115.2 464)"/><path d="M407.719 150.982 416.585 150.982" stroke="#FFFFFF" stroke-width="0.973749" stroke-linejoin="round" stroke-miterlimit="10" fill="none" transform="matrix(1.05474 0 0 1 2115.2 464)"/><path d="M407.719 103.141 416.585 103.141" stroke="#FFFFFF" stroke-width="0.973749" stroke-linejoin="round" stroke-miterlimit="10" fill="none" transform="matrix(1.05474 0 0 1 2115.2 464)"/><path d="M443.159 294.559 451.999 294.559" stroke="#FFFFFF" stroke-width="0.973749" stroke-linejoin="round" stroke-miterlimit="10" fill="none" transform="matrix(1.05474 0 0 1 2115.2 464)"/><path d="M443.159 246.692 451.999 246.692" stroke="#FFFFFF" stroke-width="0.973749" stroke-linejoin="round" stroke-miterlimit="10" fill="none" transform="matrix(1.05474 0 0 1 2115.2 464)"/><path d="M443.159 198.85 451.999 198.85" stroke="#FFFFFF" stroke-width="0.973749" stroke-linejoin="round" stroke-miterlimit="10" fill="none" transform="matrix(1.05474 0 0 1 2115.2 464)"/><path d="M443.159 150.982 451.999 150.982" stroke="#FFFFFF" stroke-width="0.973749" stroke-linejoin="round" stroke-miterlimit="10" fill="none" transform="matrix(1.05474 0 0 1 2115.2 464)"/><path d="M443.159 103.141 451.999 103.141" stroke="#FFFFFF" stroke-width="0.973749" stroke-linejoin="round" stroke-miterlimit="10" fill="none" transform="matrix(1.05474 0 0 1 2115.2 464)"/></g></g></g></g><text font-family="Cambria Math,Cambria Math_MSFontService,sans-serif" font-weight="700" font-size="55" transform="translate(1895.15 1446)">③</text><text font-family="Arial,Arial_MSFontService,sans-serif" font-weight="400" font-size="55" transform="matrix(1 0 0 1 1975.36 1446)">Predict</text><path d="M1453 1140.5C1453 1049.1 1587.76 975 1754 975 1920.24 975 2055 1049.1 2055 1140.5 2055 1231.9 1920.24 1306 1754 1306 1587.76 1306 1453 1231.9 1453 1140.5Z" fill="#97E597" fill-rule="evenodd"/><text font-family="Arial,Arial_MSFontService,sans-serif" font-weight="400" font-size="55" transform="matrix(1 0 0 1 1584.92 1161)">Lasso models</text><path d="M2840 484.835C2840 442.952 2873.95 409 2915.83 409L3422.17 409C3464.05 409 3498 442.952 3498 484.835L3498 788.165C3498 830.047 3464.05 864 3422.17 864L2915.83 864C2873.95 864 2840 830.047 2840 788.165Z" fill="#A2D3EE" fill-rule="evenodd"/><text font-family="Arial,Arial_MSFontService,sans-serif" font-weight="400" font-size="55" transform="matrix(1 0 0 1 3067.13 493)">Individuals</text><text font-family="Arial,Arial_MSFontService,sans-serif" font-weight="400" font-size="55" transform="matrix(-1.83697e-16 -1 1 -1.83697e-16 2905.47 778)">Diseases</text><rect x="2929" y="515" width="535" height="300" fill="#EEF7FC"/><text font-family="Arial,Arial_MSFontService,sans-serif" font-weight="400" font-size="55" transform="matrix(1 0 0 1 2961.97 585)">0 1 0 0 0 1 … 1 0</text><text font-family="Arial,Arial_MSFontService,sans-serif" font-weight="400" font-size="55" transform="matrix(1 0 0 1 2961.97 651)">0 0 1 0 0 0 … 0 1</text><text font-family="Arial,Arial_MSFontService,sans-serif" font-weight="400" font-size="55" transform="matrix(1 0 0 1 3240.41 717)">…</text><text font-family="Arial,Arial_MSFontService,sans-serif" font-weight="400" font-size="55" transform="matrix(1 0 0 1 2961.97 783)">1 0 0 0 0 0 … 0 0</text><text font-family="Cambria Math,Cambria Math_MSFontService,sans-serif" font-weight="700" font-size="55" transform="translate(2515.4 610)">④</text><text font-family="Arial,Arial_MSFontService,sans-serif" font-weight="400" font-size="55" transform="matrix(1 0 0 1 2595.61 610)">Associate</text><path d="M2811.39 654.623 2533.39 651.083 2533.44 646.5 2811.45 650.04ZM2807.01 638.524 2834.34 652.623 2806.66 666.022ZM2537.82 662.599 2510.5 648.5 2538.17 635.101Z"/><text font-family="Arial,Arial_MSFontService,sans-serif" font-weight="400" font-size="55" transform="matrix(1 0 0 1 356.863 1379)">TCR sequences</text><path d="M821.5 1608.21 926.604 1608.21 926.603 1612.79 821.5 1612.79ZM922.02 1596.75 949.52 1610.5 922.02 1624.25Z"/><text font-family="Arial,Arial_MSFontService,sans-serif" font-weight="400" font-size="55" transform="matrix(1 0 0 1 262.794 1770)">…</text><text font-family="Arial,Arial_MSFontService,sans-serif" font-weight="400" font-size="55" transform="matrix(1 0 0 1 163.369 1854)">Individual</text><text font-family="Arial,Arial_MSFontService,sans-serif" font-weight="400" font-size="37" transform="matrix(1 0 0 1 394.255 1867)">N</text><text font-family="Arial,Arial_MSFontService,sans-serif" font-weight="400" font-size="55" transform="matrix(1 0 0 1 80.3913 1713)">Individual</text><text font-family="Arial,Arial_MSFontService,sans-serif" font-weight="400" font-size="37" transform="matrix(1 0 0 1 311.277 1726)">1</text><path d="M343.5 1468C343.5 1434.04 371.035 1406.5 405.001 1406.5L720.999 1406.5C754.965 1406.5 782.5 1434.04 782.5 1468L782.5 1714C782.5 1747.96 754.965 1775.5 720.999 1775.5L405.001 1775.5C371.035 1775.5 343.5 1747.96 343.5 1714Z" stroke="#413D23" stroke-width="4.58333" stroke-miterlimit="8" fill="#EDECDF" fill-rule="evenodd"/><rect x="369" y="1447" width="390" height="300" fill="#F8F7F2"/><text font-family="Arial,Arial_MSFontService,sans-serif" font-weight="400" font-size="55" transform="matrix(1 0 0 1 402.303 1517)">CASS…GRF</text><text font-family="Arial,Arial_MSFontService,sans-serif" font-weight="400" font-size="55" transform="matrix(1 0 0 1 402.303 1583)">CATS…LHF</text><text font-family="Arial,Arial_MSFontService,sans-serif" font-weight="400" font-size="55" transform="matrix(1 0 0 1 603.396 1649)">…</text><text font-family="Arial,Arial_MSFontService,sans-serif" font-weight="400" font-size="55" transform="matrix(1 0 0 1 402.303 1715)">CSVI…QFF</text><path d="M398.5 1523C398.5 1489.04 426.035 1461.5 460.001 1461.5L775.999 1461.5C809.965 1461.5 837.5 1489.04 837.5 1523L837.5 1769C837.5 1802.96 809.965 1830.5 775.999 1830.5L460.001 1830.5C426.035 1830.5 398.5 1802.96 398.5 1769Z" stroke="#413D23" stroke-width="4.58333" stroke-miterlimit="8" fill="#EDECDF" fill-rule="evenodd"/><rect x="424" y="1502" width="390" height="300" fill="#F8F7F2"/><text font-family="Arial,Arial_MSFontService,sans-serif" font-weight="400" font-size="55" transform="matrix(1 0 0 1 457.303 1572)">CASS…GRF</text><text font-family="Arial,Arial_MSFontService,sans-serif" font-weight="400" font-size="55" transform="matrix(1 0 0 1 457.303 1638)">CATS…LHF</text><text font-family="Arial,Arial_MSFontService,sans-serif" font-weight="400" font-size="55" transform="matrix(1 0 0 1 658.396 1704)">…</text><text font-family="Arial,Arial_MSFontService,sans-serif" font-weight="400" font-size="55" transform="matrix(1 0 0 1 457.303 1770)">CSVI…QFF</text><path d="M2181 1413.5C2181 1374.56 2212.56 1343 2251.5 1343L2759.5 1343C2798.44 1343 2830 1374.56 2830 1413.5L2830 1695.5C2830 1734.44 2798.44 1766 2759.5 1766L2251.5 1766C2212.56 1766 2181 1734.44 2181 1695.5Z" fill="#F4C4C5" fill-rule="evenodd"/><text font-family="Arial,Arial_MSFontService,sans-serif" font-weight="400" font-size="55" transform="matrix(1 0 0 1 2407.49 1405)">Individuals</text><text font-family="Arial,Arial_MSFontService,sans-serif" font-weight="400" font-size="55" transform="matrix(-1.83697e-16 -1 1 -1.83697e-16 2259.04 1677)">Variants</text><rect x="2280" y="1427" width="513" height="300" fill="#FBEFEF"/><text font-family="Arial,Arial_MSFontService,sans-serif" font-weight="400" font-size="55" transform="matrix(1 0 0 1 2312.99 1496)">2 0 1 1 0 0 … 0 1</text><text font-family="Arial,Arial_MSFontService,sans-serif" font-weight="400" font-size="55" transform="matrix(1 0 0 1 2312.99 1562)">1 0 0 2 0 1 … 1 2</text><text font-family="Arial,Arial_MSFontService,sans-serif" font-weight="400" font-size="55" transform="matrix(1 0 0 1 2591.43 1628)">…</text><text font-family="Arial,Arial_MSFontService,sans-serif" font-weight="400" font-size="55" transform="matrix(1 0 0 1 2312.99 1694)">0 0 0 0 0 2 … 0 0</text><text font-family="Cambria Math,Cambria Math_MSFontService,sans-serif" font-weight="700" font-size="55" transform="translate(2387.12 1011)">⑤</text><text font-family="Arial,Arial_MSFontService,sans-serif" font-weight="400" font-size="55" transform="matrix(1 0 0 1 2467.33 1011)">Associate</text><path d="M2823.6 1097.13 2534.99 734.852 2538.57 731.996 2827.19 1094.28ZM2833.29 1083.55 2839.67 1113.63 2811.78 1100.69ZM2528.88 745.576 2522.5 715.5 2550.39 728.441Z"/><text fill="#3E70B4" font-family="Arial,Arial_MSFontService,sans-serif" font-weight="400" font-size="55" transform="matrix(1 0 0 1 701.785 294)">rfuQTL</text><text fill="#3E70B4" font-family="Arial,Arial_MSFontService,sans-serif" font-weight="400" font-size="55" transform="matrix(1 0 0 1 888.556 294)">dataset</text><text fill="#3E70B4" font-family="Arial,Arial_MSFontService,sans-serif" font-weight="400" font-size="55" transform="matrix(1 0 0 1 2450.05 294)">R</text><text fill="#3E70B4" font-family="Arial,Arial_MSFontService,sans-serif" font-weight="400" font-size="55" transform="matrix(1 0 0 1 2489.58 294)">fuWAS</text><text fill="#3E70B4" font-family="Arial,Arial_MSFontService,sans-serif" font-weight="400" font-size="55" transform="matrix(1 0 0 1 2676.35 294)">dataset</text><g clip-path="url(#clip11)"><g clip-path="url(#clip12)"><g clip-path="url(#clip13)"><path d="M0 0 526.9 0 526.9 395.175-1.39581e-05 395.175Z" fill="#FFFFFF" transform="matrix(1.00019 0 0 1 2897.86 948)"/><g clip-path="url(#clip14)"><path d="M7.31806e-14 0 526.9 0 526.9 395.175-1.39581e-05 395.175Z" stroke="#FFFFFF" stroke-width="5.30559" stroke-linecap="round" stroke-linejoin="round" stroke-miterlimit="10" fill="#FFFFFF" transform="matrix(1.00019 0 0 1 2897.86 948)"/></g><g clip-path="url(#clip15)"><path d="M114.665 27.3512 499.595 27.3512 499.595 280.556 114.665 280.556Z" fill="#FFFFFF" transform="matrix(1.00019 0 0 1 2897.86 948)"/><path d="M132.137 38.8314 135.979 38.8314 135.979 43.8626 136.345 43.8626 136.345 45.5092 136.71 45.5092 136.71 48.848 137.396 48.848 137.396 50.5403 141.238 50.5403 141.238 52.1869 142.656 52.1869 142.656 53.8792 142.977 53.8792 142.977 55.5257 150.706 55.5257 150.706 58.8646 151.026 58.8646 151.026 60.5112 152.81 60.5112 152.81 62.2035 153.13 62.2035 153.13 63.85 154.868 63.85 154.868 67.1889 156.972 67.1889 156.972 68.8812 160.494 68.8812 160.494 70.5278 162.918 70.5278 162.918 73.8666 164.336 73.8666 164.336 75.5589 164.702 75.5589 164.702 77.2055 165.388 77.2055 165.388 78.8978 168.864 78.8978 168.864 80.5444 169.596 80.5444 169.596 82.2366 170.648 82.2366 170.648 83.8832 172.752 83.8832 172.752 85.5298 173.438 85.5298 173.438 87.2221 177.966 87.2221 177.966 88.8686 178.332 88.8686 178.332 92.2075 179.384 92.2075 179.384 93.8998 181.854 93.8998 181.854 95.5464 182.54 95.5464 182.54 97.2387 183.592 97.2387 183.592 98.8852 186.748 98.8852 186.748 102.224 189.172 102.224 189.172 107.255 190.224 107.255 190.224 108.902 191.642 108.902 191.642 110.548 193.014 110.548 193.014 110.548 193.38 110.548 193.38 112.241 193.746 112.241 193.746 113.933 194.066 113.933 194.066 115.625 194.798 115.625 194.798 119.01 195.118 119.01 195.118 120.702 195.484 120.702 195.484 124.041 196.17 124.041 196.17 125.733 196.901 125.733 196.901 125.733 197.908 125.733 197.908 125.733 198.274 125.733 198.274 127.471 198.96 127.471 198.96 127.471 200.743 127.471 200.743 127.471 201.064 127.471 201.064 129.255 202.847 129.255 202.847 131.039 204.585 131.039 204.585 132.823 205.637 132.823 205.637 134.606 206.323 134.606 206.323 136.39 208.427 136.39 208.427 138.174 209.479 138.174 209.479 138.174 209.845 138.174 209.845 140.004 210.165 140.004 210.165 141.833 210.897 141.833 210.897 141.833 212.269 141.833 212.269 143.754 212.635 143.754 212.635 145.629 215.059 145.629 215.059 145.629 215.791 145.629 215.791 147.596 218.215 147.596 218.215 149.517 222.789 149.517 222.789 149.517 225.579 149.517 225.579 151.484 226.265 151.484 226.265 153.405 226.631 153.405 226.631 155.371 229.787 155.371 229.787 155.371 231.159 155.371 231.159 157.384 231.525 157.384 231.525 159.351 231.891 159.351 231.891 161.409 232.211 161.409 232.211 163.421 232.943 163.421 232.943 165.48 233.949 165.48 233.949 167.492 234.315 167.492 234.315 167.492 237.105 167.492 237.105 167.492 237.471 167.492 237.471 169.596 238.157 169.596 238.157 171.791 239.209 171.791 239.209 173.987 240.627 173.987 240.627 176.182 244.103 176.182 244.103 178.378 247.259 178.378 247.259 180.619 250.049 180.619 250.049 182.814 255.675 182.814 255.675 187.251 259.151 187.251 259.151 189.446 259.517 189.446 259.517 191.642 261.986 191.642 261.986 193.883 267.566 193.883 267.566 196.078 268.618 196.078 268.618 198.274 269.991 198.274 269.991 200.515 273.512 200.515 273.512 200.515 276.668 200.515 276.668 200.515 281.928 200.515 281.928 202.847 282.248 202.847 282.248 205.226 286.822 205.226 286.822 207.604 287.508 207.604 287.508 207.604 291.35 207.604 291.35 210.028 292.036 210.028 292.036 212.498 292.402 212.498 292.402 212.498 293.088 212.498 293.088 215.059 299.034 215.059 299.034 217.621 313.762 217.621 313.762 220.228 315.5 220.228 315.5 222.789 318.656 222.789 318.656 225.35 327.392 225.35 327.392 227.912 330.547 227.912 330.547 230.473 333.017 230.473 333.017 233.034 336.127 233.034 336.127 235.641 346.647 235.641 346.647 238.203 350.489 238.203 350.489 240.764 357.121 240.764 357.121 243.325 361.329 243.325 361.329 245.887 373.221 245.887 373.221 248.448 379.533 248.448 379.533 251.055 408.942 251.055 408.942 253.616 414.202 253.616 414.202 253.616 416.992 253.616 416.992 256.681 426.094 256.681 426.094 256.681 441.142 256.681 441.142 260.797 485.553 260.797 485.553 260.797 489.761 260.797 489.761 260.797" stroke="#F8766D" stroke-width="9.74216" stroke-linejoin="round" stroke-miterlimit="10" fill="none" transform="matrix(1.00019 0 0 1 2897.86 948)"/><path d="M132.137 38.8314 133.875 38.8314 133.875 41.3928 153.13 41.3928 153.13 43.9541 153.496 43.9541 153.496 46.5154 153.816 46.5154 153.816 49.0767 159.808 49.0767 159.808 51.638 160.494 51.638 160.494 54.1994 164.336 54.1994 164.336 54.1994 165.388 54.1994 165.388 56.7607 168.864 56.7607 168.864 56.7607 169.596 56.7607 169.596 59.4135 174.856 59.4135 174.856 62.0205 182.86 62.0205 182.86 67.2804 185.696 67.2804 185.696 69.8874 190.224 69.8874 190.224 72.4945 190.59 72.4945 190.59 75.1015 192.694 75.1015 192.694 75.1015 193.38 75.1015 193.38 75.1015 194.066 75.1015 194.066 75.1015 195.849 75.1015 195.849 77.8458 197.222 77.8458 197.222 80.5901 199.326 80.5901 199.326 80.5901 200.012 80.5901 200.012 83.3344 201.795 83.3344 201.795 86.1244 202.481 86.1244 202.481 91.6587 202.847 91.6587 202.847 91.6587 203.168 91.6587 203.168 91.6587 204.906 91.6587 204.906 94.5401 205.958 94.5401 205.958 94.5401 210.531 94.5401 210.531 94.5401 211.217 94.5401 211.217 97.4674 214.373 97.4674 214.373 97.4674 215.791 97.4674 215.791 100.486 216.111 100.486 216.111 100.486 217.163 100.486 217.163 100.486 217.895 100.486 217.895 103.596 220.319 103.596 220.319 103.596 225.213 103.596 225.213 103.596 225.945 103.596 225.945 106.844 226.265 106.844 226.265 106.844 227.317 106.844 227.317 106.844 228.735 106.844 228.735 106.844 231.891 106.844 231.891 110.32 234.315 110.32 234.315 110.32 234.681 110.32 234.681 113.841 235.733 113.841 235.733 113.841 238.889 113.841 238.889 117.455 240.627 117.455 240.627 121.068 242.365 121.068 242.365 121.068 248.311 121.068 248.311 121.068 251.101 121.068 251.101 124.864 252.885 124.864 252.885 128.661 253.937 128.661 253.937 132.457 254.623 132.457 254.623 136.253 254.989 136.253 254.989 140.004 256.727 140.004 256.727 140.004 258.465 140.004 258.465 143.937 259.151 143.937 259.151 147.825 259.517 147.825 259.517 147.825 261.986 147.825 261.986 151.895 263.724 151.895 263.724 151.895 265.828 151.895 265.828 151.895 266.514 151.895 266.514 151.895 281.196 151.895 281.196 156.378 283.666 156.378 283.666 160.906 287.508 160.906 287.508 165.388 289.612 165.388 289.612 169.916 297.662 169.916 297.662 174.398 310.972 174.398 310.972 174.398 314.082 174.398 314.082 179.384 315.5 179.384 315.5 184.369 317.238 184.369 317.238 184.369 322.132 184.369 322.132 184.369 324.602 184.369 324.602 189.995 324.967 189.995 324.967 189.995 327.757 189.995 327.757 189.995 337.911 189.995 337.911 189.995 356.435 189.995 356.435 197.176 361.009 197.176 361.009 204.357 372.535 204.357 372.535 211.538 378.847 211.538 378.847 218.718 386.896 218.718 386.896 225.945 387.948 225.945 387.948 233.126 389.321 233.126 389.321 240.307 391.104 240.307 391.104 240.307 399.84 240.307 399.84 249.866 419.416 249.866 419.416 249.866 469.819 249.866 469.819 249.866" stroke="#00BFC4" stroke-width="9.74216" stroke-linejoin="round" stroke-miterlimit="10" fill="none" transform="matrix(1.00019 0 0 1 2897.86 948)"/><text fill="#F8766D" font-family="Arial,Arial_MSFontService,sans-serif" font-weight="400" font-size="14" transform="matrix(4.57464 0 0 4.57378 3072.61 1078)">+</text><text fill="#F8766D" font-family="Arial,Arial_MSFontService,sans-serif" font-weight="400" font-size="14" transform="matrix(4.57464 0 0 4.57378 3076.5 1093)">+</text><text fill="#F8766D" font-family="Arial,Arial_MSFontService,sans-serif" font-weight="400" font-size="14" transform="matrix(4.57464 0 0 4.57378 3077.5 1093)">+</text><text fill="#F8766D" font-family="Arial,Arial_MSFontService,sans-serif" font-weight="400" font-size="14" transform="matrix(4.57464 0 0 4.57378 3078.55 1095)">+</text><text fill="#F8766D" font-family="Arial,Arial_MSFontService,sans-serif" font-weight="400" font-size="14" transform="matrix(4.57464 0 0 4.57378 3080.34 1095)">+</text><text fill="#F8766D" font-family="Arial,Arial_MSFontService,sans-serif" font-weight="400" font-size="14" transform="matrix(4.57464 0 0 4.57378 3080.66 1097)">+</text><text fill="#F8766D" font-family="Arial,Arial_MSFontService,sans-serif" font-weight="400" font-size="14" transform="matrix(4.57464 0 0 4.57378 3089.08 1106)">+</text><text fill="#F8766D" font-family="Arial,Arial_MSFontService,sans-serif" font-weight="400" font-size="14" transform="matrix(4.57464 0 0 4.57378 3089.44 1108)">+</text><text fill="#F8766D" font-family="Arial,Arial_MSFontService,sans-serif" font-weight="400" font-size="14" transform="matrix(4.57464 0 0 4.57378 3090.49 1110)">+</text><text fill="#F8766D" font-family="Arial,Arial_MSFontService,sans-serif" font-weight="400" font-size="14" transform="matrix(4.57464 0 0 4.57378 3094.66 1113)">+</text><text fill="#F8766D" font-family="Arial,Arial_MSFontService,sans-serif" font-weight="400" font-size="14" transform="matrix(4.57464 0 0 4.57378 3102.39 1117)">+</text><text fill="#F8766D" font-family="Arial,Arial_MSFontService,sans-serif" font-weight="400" font-size="14" transform="matrix(4.57464 0 0 4.57378 3109.39 1123)">+</text><text fill="#F8766D" font-family="Arial,Arial_MSFontService,sans-serif" font-weight="400" font-size="14" transform="matrix(4.57464 0 0 4.57378 3111.13 1127)">+</text><text fill="#F8766D" font-family="Arial,Arial_MSFontService,sans-serif" font-weight="400" font-size="14" transform="matrix(4.57464 0 0 4.57378 3113.92 1135)">+</text><text fill="#F8766D" font-family="Arial,Arial_MSFontService,sans-serif" font-weight="400" font-size="14" transform="matrix(4.57464 0 0 4.57378 3116.71 1135)">+</text><text fill="#F8766D" font-family="Arial,Arial_MSFontService,sans-serif" font-weight="400" font-size="14" transform="matrix(4.57464 0 0 4.57378 3117.07 1137)">+</text><text fill="#F8766D" font-family="Arial,Arial_MSFontService,sans-serif" font-weight="400" font-size="14" transform="matrix(4.57464 0 0 4.57378 3117.76 1139)">+</text><text fill="#F8766D" font-family="Arial,Arial_MSFontService,sans-serif" font-weight="400" font-size="14" transform="matrix(4.57464 0 0 4.57378 3153.12 1168)">+</text><text fill="#F8766D" font-family="Arial,Arial_MSFontService,sans-serif" font-weight="400" font-size="14" transform="matrix(4.57464 0 0 4.57378 3156.28 1168)">+</text><text fill="#F8766D" font-family="Arial,Arial_MSFontService,sans-serif" font-weight="400" font-size="14" transform="matrix(4.57464 0 0 4.57378 3167.12 1175)">+</text><text fill="#F8766D" font-family="Arial,Arial_MSFontService,sans-serif" font-weight="400" font-size="14" transform="matrix(4.57464 0 0 4.57378 3172.01 1180)">+</text><text fill="#F8766D" font-family="Arial,Arial_MSFontService,sans-serif" font-weight="400" font-size="14" transform="matrix(4.57464 0 0 4.57378 3293.84 1221)">+</text><text fill="#F8766D" font-family="Arial,Arial_MSFontService,sans-serif" font-weight="400" font-size="14" transform="matrix(4.57464 0 0 4.57378 3305.73 1224)">+</text><text fill="#F8766D" font-family="Arial,Arial_MSFontService,sans-serif" font-weight="400" font-size="14" transform="matrix(4.57464 0 0 4.57378 3365.2 1229)">+</text><text fill="#F8766D" font-family="Arial,Arial_MSFontService,sans-serif" font-weight="400" font-size="14" transform="matrix(4.57464 0 0 4.57378 3369.41 1229)">+</text><text fill="#00BFC4" font-family="Arial,Arial_MSFontService,sans-serif" font-weight="400" font-size="14" transform="matrix(4.57464 0 0 4.57378 3043.92 1022)">+</text><text fill="#00BFC4" font-family="Arial,Arial_MSFontService,sans-serif" font-weight="400" font-size="14" transform="matrix(4.57464 0 0 4.57378 3048.45 1024)">+</text><text fill="#00BFC4" font-family="Arial,Arial_MSFontService,sans-serif" font-weight="400" font-size="14" transform="matrix(4.57464 0 0 4.57378 3072.29 1043)">+</text><text fill="#00BFC4" font-family="Arial,Arial_MSFontService,sans-serif" font-weight="400" font-size="14" transform="matrix(4.57464 0 0 4.57378 3072.97 1043)">+</text><text fill="#00BFC4" font-family="Arial,Arial_MSFontService,sans-serif" font-weight="400" font-size="14" transform="matrix(4.57464 0 0 4.57378 3073.66 1043)">+</text><text fill="#00BFC4" font-family="Arial,Arial_MSFontService,sans-serif" font-weight="400" font-size="14" transform="matrix(4.57464 0 0 4.57378 3078.92 1048)">+</text><text fill="#00BFC4" font-family="Arial,Arial_MSFontService,sans-serif" font-weight="400" font-size="14" transform="matrix(4.57464 0 0 4.57378 3082.44 1059)">+</text><text fill="#00BFC4" font-family="Arial,Arial_MSFontService,sans-serif" font-weight="400" font-size="14" transform="matrix(4.57464 0 0 4.57378 3082.76 1059)">+</text><text fill="#00BFC4" font-family="Arial,Arial_MSFontService,sans-serif" font-weight="400" font-size="14" transform="matrix(4.57464 0 0 4.57378 3085.55 1062)">+</text><text fill="#00BFC4" font-family="Arial,Arial_MSFontService,sans-serif" font-weight="400" font-size="14" transform="matrix(4.57464 0 0 4.57378 3090.13 1062)">+</text><text fill="#00BFC4" font-family="Arial,Arial_MSFontService,sans-serif" font-weight="400" font-size="14" transform="matrix(4.57464 0 0 4.57378 3093.97 1065)">+</text><text fill="#00BFC4" font-family="Arial,Arial_MSFontService,sans-serif" font-weight="400" font-size="14" transform="matrix(4.57464 0 0 4.57378 3095.71 1068)">+</text><text fill="#00BFC4" font-family="Arial,Arial_MSFontService,sans-serif" font-weight="400" font-size="14" transform="matrix(4.57464 0 0 4.57378 3096.76 1068)">+</text><text fill="#00BFC4" font-family="Arial,Arial_MSFontService,sans-serif" font-weight="400" font-size="14" transform="matrix(4.57464 0 0 4.57378 3099.92 1071)">+</text><text fill="#00BFC4" font-family="Arial,Arial_MSFontService,sans-serif" font-weight="400" font-size="14" transform="matrix(4.57464 0 0 4.57378 3104.81 1071)">+</text><text fill="#00BFC4" font-family="Arial,Arial_MSFontService,sans-serif" font-weight="400" font-size="14" transform="matrix(4.57464 0 0 4.57378 3105.86 1075)">+</text><text fill="#00BFC4" font-family="Arial,Arial_MSFontService,sans-serif" font-weight="400" font-size="14" transform="matrix(4.57464 0 0 4.57378 3106.92 1075)">+</text><text fill="#00BFC4" font-family="Arial,Arial_MSFontService,sans-serif" font-weight="400" font-size="14" transform="matrix(4.57464 0 0 4.57378 3108.34 1075)">+</text><text fill="#00BFC4" font-family="Arial,Arial_MSFontService,sans-serif" font-weight="400" font-size="14" transform="matrix(4.57464 0 0 4.57378 3113.92 1078)">+</text><text fill="#00BFC4" font-family="Arial,Arial_MSFontService,sans-serif" font-weight="400" font-size="14" transform="matrix(4.57464 0 0 4.57378 3115.33 1082)">+</text><text fill="#00BFC4" font-family="Arial,Arial_MSFontService,sans-serif" font-weight="400" font-size="14" transform="matrix(4.57464 0 0 4.57378 3121.97 1089)">+</text><text fill="#00BFC4" font-family="Arial,Arial_MSFontService,sans-serif" font-weight="400" font-size="14" transform="matrix(4.57464 0 0 4.57378 3127.91 1089)">+</text><text fill="#00BFC4" font-family="Arial,Arial_MSFontService,sans-serif" font-weight="400" font-size="14" transform="matrix(4.57464 0 0 4.57378 3136.33 1108)">+</text><text fill="#00BFC4" font-family="Arial,Arial_MSFontService,sans-serif" font-weight="400" font-size="14" transform="matrix(4.57464 0 0 4.57378 3139.12 1116)">+</text><text fill="#00BFC4" font-family="Arial,Arial_MSFontService,sans-serif" font-weight="400" font-size="14" transform="matrix(4.57464 0 0 4.57378 3143.33 1120)">+</text><text fill="#00BFC4" font-family="Arial,Arial_MSFontService,sans-serif" font-weight="400" font-size="14" transform="matrix(4.57464 0 0 4.57378 3145.44 1120)">+</text><text fill="#00BFC4" font-family="Arial,Arial_MSFontService,sans-serif" font-weight="400" font-size="14" transform="matrix(4.57464 0 0 4.57378 3146.12 1120)">+</text><text fill="#00BFC4" font-family="Arial,Arial_MSFontService,sans-serif" font-weight="400" font-size="14" transform="matrix(4.57464 0 0 4.57378 3190.59 1142)">+</text><text fill="#00BFC4" font-family="Arial,Arial_MSFontService,sans-serif" font-weight="400" font-size="14" transform="matrix(4.57464 0 0 4.57378 3196.85 1152)">+</text><text fill="#00BFC4" font-family="Arial,Arial_MSFontService,sans-serif" font-weight="400" font-size="14" transform="matrix(4.57464 0 0 4.57378 3201.75 1152)">+</text><text fill="#00BFC4" font-family="Arial,Arial_MSFontService,sans-serif" font-weight="400" font-size="14" transform="matrix(4.57464 0 0 4.57378 3204.59 1158)">+</text><text fill="#00BFC4" font-family="Arial,Arial_MSFontService,sans-serif" font-weight="400" font-size="14" transform="matrix(4.57464 0 0 4.57378 3207.38 1158)">+</text><text fill="#00BFC4" font-family="Arial,Arial_MSFontService,sans-serif" font-weight="400" font-size="14" transform="matrix(4.57464 0 0 4.57378 3217.53 1158)">+</text><text fill="#00BFC4" font-family="Arial,Arial_MSFontService,sans-serif" font-weight="400" font-size="14" transform="matrix(4.57464 0 0 4.57378 3270.73 1208)">+</text><text fill="#00BFC4" font-family="Arial,Arial_MSFontService,sans-serif" font-weight="400" font-size="14" transform="matrix(4.57464 0 0 4.57378 3299.05 1218)">+</text><text fill="#00BFC4" font-family="Arial,Arial_MSFontService,sans-serif" font-weight="400" font-size="14" transform="matrix(4.57464 0 0 4.57378 3349.46 1218)">+</text></g><g clip-path="url(#clip16)"><path d="M114.665 280.51 114.665 27.3512" stroke="#000000" stroke-width="5.30559" stroke-linejoin="round" stroke-miterlimit="10" fill="none" transform="matrix(1.00019 0 0 1 2897.86 948)"/><path d="M100.989 269.03 114.665 269.03" stroke="#000000" stroke-width="5.30559" stroke-linejoin="round" stroke-miterlimit="10" fill="none" transform="matrix(1.00019 0 0 1 2897.86 948)"/><path d="M100.989 211.492 114.665 211.492" stroke="#000000" stroke-width="5.30559" stroke-linejoin="round" stroke-miterlimit="10" fill="none" transform="matrix(1.00019 0 0 1 2897.86 948)"/><path d="M100.989 153.954 114.665 153.954" stroke="#000000" stroke-width="5.30559" stroke-linejoin="round" stroke-miterlimit="10" fill="none" transform="matrix(1.00019 0 0 1 2897.86 948)"/><path d="M100.989 96.3696 114.665 96.3696" stroke="#000000" stroke-width="5.30559" stroke-linejoin="round" stroke-miterlimit="10" fill="none" transform="matrix(1.00019 0 0 1 2897.86 948)"/><path d="M100.989 38.8314 114.665 38.8314" stroke="#000000" stroke-width="5.30559" stroke-linejoin="round" stroke-miterlimit="10" fill="none" transform="matrix(1.00019 0 0 1 2897.86 948)"/><path d="M114.665 280.51 499.549 280.51" stroke="#000000" stroke-width="5.30559" stroke-linejoin="round" stroke-miterlimit="10" fill="none" transform="matrix(1.00019 0 0 1 2897.86 948)"/><path d="M132.137 294.186 132.137 280.51" stroke="#000000" stroke-width="5.30559" stroke-linejoin="round" stroke-miterlimit="10" fill="none" transform="matrix(1.00019 0 0 1 2897.86 948)"/><path d="M219.633 294.186 219.633 280.51" stroke="#000000" stroke-width="5.30559" stroke-linejoin="round" stroke-miterlimit="10" fill="none" transform="matrix(1.00019 0 0 1 2897.86 948)"/><path d="M307.084 294.186 307.084 280.51" stroke="#000000" stroke-width="5.30559" stroke-linejoin="round" stroke-miterlimit="10" fill="none" transform="matrix(1.00019 0 0 1 2897.86 948)"/><path d="M394.58 294.186 394.58 280.51" stroke="#000000" stroke-width="5.30559" stroke-linejoin="round" stroke-miterlimit="10" fill="none" transform="matrix(1.00019 0 0 1 2897.86 948)"/><path d="M482.077 294.186 482.077 280.51" stroke="#000000" stroke-width="5.30559" stroke-linejoin="round" stroke-miterlimit="10" fill="none" transform="matrix(1.00019 0 0 1 2897.86 948)"/></g></g></g></g><text font-family="Arial,Arial_MSFontService,sans-serif" font-weight="400" font-size="55" transform="matrix(-1.83697e-16 -1 1 -1.83697e-16 2905.47 1208)">Survival</text></g></svg>